<svg width="1006" height="306" viewBox="0 0 1006 306" fill="none" xmlns="http://www.w3.org/2000/svg">
<g filter="url(#filter0_d_234_10237)">
<path d="M34 40H6C2.68629 40 0 42.6863 0 46V254C0 257.314 2.68629 260 6 260H34C37.3137 260 40 262.686 40 266V294C40 297.314 42.6863 300 46 300H500H954C957.314 300 960 297.314 960 294V266C960 262.686 962.686 260 966 260H994C997.314 260 1000 257.314 1000 254V46C1000 42.6863 997.314 40 994 40H966C962.686 40 960 37.3137 960 34V6C960 2.68629 957.314 0 954 0H500H46C42.6863 0 40 2.68629 40 6V34C40 37.3137 37.3137 40 34 40Z" fill="#A81E32"/>
</g>
<defs>
<filter id="filter0_d_234_10237" x="0" y="0" width="1006" height="306" filterUnits="userSpaceOnUse" color-interpolation-filters="sRGB">
<feFlood flood-opacity="0" result="BackgroundImageFix"/>
<feColorMatrix in="SourceAlpha" type="matrix" values="0 0 0 0 0 0 0 0 0 0 0 0 0 0 0 0 0 0 127 0" result="hardAlpha"/>
<feOffset dx="4" dy="4"/>
<feGaussianBlur stdDeviation="1"/>
<feComposite in2="hardAlpha" operator="out"/>
<feColorMatrix type="matrix" values="0 0 0 0 0 0 0 0 0 0 0 0 0 0 0 0 0 0 0.25 0"/>
<feBlend mode="normal" in2="BackgroundImageFix" result="effect1_dropShadow_234_10237"/>
<feBlend mode="normal" in="SourceGraphic" in2="effect1_dropShadow_234_10237" result="shape"/>
</filter>
</defs>
</svg>
