<svg width="356" height="206" viewBox="0 0 356 206" fill="none" xmlns="http://www.w3.org/2000/svg">
<g filter="url(#filter0_d_249_17274)">
<path d="M34.0003 40.0001H6.00002C2.6863 40.0001 7.25859e-06 42.6864 1.62125e-05 46.0001L0.000308037 154C0.000316991 157.314 2.68661 160 6.00032 160H34C37.3137 160 40 162.686 40 166V194C40 197.314 42.6863 200 46 200H175H304C307.314 200 310 197.314 310 194V166C310 162.686 312.686 160 316 160H344C347.314 160 350 157.314 350 154V46C350 42.6863 347.314 40 344 40H316C312.686 40 310 37.3137 310 34V6C310 2.68629 307.314 0 304 4.06903e-06L175 9.15527e-05H46.0003C42.6866 9.15527e-05 40.0003 2.68638 40.0003 6.00009V34.0001C40.0003 37.3138 37.314 40.0001 34.0003 40.0001Z" fill="#FDC43C"/>
</g>
<defs>
<filter id="filter0_d_249_17274" x="0" y="0" width="356" height="206" filterUnits="userSpaceOnUse" color-interpolation-filters="sRGB">
<feFlood flood-opacity="0" result="BackgroundImageFix"/>
<feColorMatrix in="SourceAlpha" type="matrix" values="0 0 0 0 0 0 0 0 0 0 0 0 0 0 0 0 0 0 127 0" result="hardAlpha"/>
<feOffset dx="4" dy="4"/>
<feGaussianBlur stdDeviation="1"/>
<feComposite in2="hardAlpha" operator="out"/>
<feColorMatrix type="matrix" values="0 0 0 0 0 0 0 0 0 0 0 0 0 0 0 0 0 0 0.25 0"/>
<feBlend mode="normal" in2="BackgroundImageFix" result="effect1_dropShadow_249_17274"/>
<feBlend mode="normal" in="SourceGraphic" in2="effect1_dropShadow_249_17274" result="shape"/>
</filter>
</defs>
</svg>
